<?xml version="1.0" standalone="no"?>
<!DOCTYPE svg PUBLIC "-//W3C//DTD SVG 20010904//EN"
 "http://www.w3.org/TR/2001/REC-SVG-20010904/DTD/svg10.dtd">
<svg version="1.0" xmlns="http://www.w3.org/2000/svg"
 width="225.000000pt" height="225.000000pt" viewBox="0 0 225.000000 225.000000"
 preserveAspectRatio="xMidYMid meet">

<g transform="translate(0.000000,225.000000) scale(0.100000,-0.100000)"
fill="#000000" stroke="none">
<path d="M0 1125 l0 -1125 1125 0 1125 0 0 1125 0 1125 -1125 0 -1125 0 0
-1125z m1100 970 l0 -35 -135 0 -135 0 0 -125 0 -124 128 -3 127 -3 3 -26 c4
-34 -13 -39 -150 -39 l-108 0 0 -130 0 -130 145 0 145 0 0 -30 0 -30 -180 0
-180 0 0 355 0 355 170 0 170 0 0 -35z m498 -7 l3 -28 -140 0 -141 0 0 -130 0
-129 128 -3 127 -3 0 -30 0 -30 -127 -3 -128 -3 0 -154 0 -155 -35 0 -35 0 0
350 0 350 173 -2 172 -3 3 -27z m-618 -885 c67 -18 152 -62 203 -106 l39 -32
-25 -23 -24 -22 -39 31 c-282 228 -710 63 -766 -295 -67 -435 416 -728 764
-461 l45 34 22 -23 21 -22 -22 -21 c-41 -38 -141 -93 -207 -113 -71 -22 -215
-27 -291 -9 -135 31 -287 153 -348 279 -104 212 -70 463 84 629 142 154 341
210 544 154z m488 -313 l3 -35 -46 3 c-104 9 -134 -51 -142 -284 l-6 -164 -34
0 -33 0 0 128 c0 70 3 184 7 255 l6 127 29 0 c27 0 28 -2 28 -47 l0 -48 25 37
c33 48 70 68 120 65 38 -2 40 -4 43 -37z m365 26 c69 -29 110 -97 122 -203 l7
-63 -187 0 -187 0 7 -37 c24 -139 137 -191 273 -128 30 14 56 25 59 25 2 0 3
-15 1 -32 -3 -28 -10 -37 -51 -57 -61 -30 -173 -33 -230 -6 -81 38 -127 129
-127 250 0 60 5 82 30 132 29 59 74 103 122 123 35 14 125 12 161 -4z m-913
-75 c77 -41 107 -187 57 -276 -32 -58 -95 -88 -166 -81 -31 3 -66 13 -80 24
-109 81 -105 253 8 329 44 30 130 32 181 4z"/>
<path d="M1700 863 c-42 -15 -100 -92 -100 -133 0 -19 6 -20 141 -20 l142 0
-6 40 c-3 23 -13 52 -22 66 -27 42 -105 65 -155 47z"/>
</g>
</svg>
